<?xml version="1.0" encoding="UTF-8" standalone="no"?><!DOCTYPE svg PUBLIC "-//W3C//DTD SVG 1.1//EN" "http://www.w3.org/Graphics/SVG/1.1/DTD/svg11.dtd"><svg width="100%" height="100%" viewBox="0 0 375 375" version="1.1" xmlns="http://www.w3.org/2000/svg" xmlns:xlink="http://www.w3.org/1999/xlink" xml:space="preserve" xmlns:serif="http://www.serif.com/" style="fill-rule:evenodd;clip-rule:evenodd;stroke-linecap:round;stroke-linejoin:round;stroke-miterlimit:1.5;"><g><path id="fundo-cabeça" serif:id="fundo cabeça" d="M141.111,80.801l2.128,38.96l27.305,13.937l39.365,8.236l62.407,-6.969l32.269,-15.838l-1.773,-47.196l42.553,-18.055l-35.106,-14.254l-89.736,-33.259l-130.887,45.929l13.297,8.144l37.583,14.83l0.597,5.534Z" style="fill:#f1f5f9;stroke:#fff;stroke-width:0.42px;"/><path id="fundo-geral" serif:id="fundo geral" d="M84.096,108.42l-0.801,-16.28l11.876,0l41.711,-3.424l1.162,34.771l71.864,20.11l55.518,-4.022l43.284,-24.262l4.371,-22.866l11.347,-0.306l9.769,13.685l34.131,16.454l-1.773,128.284l-36.347,41.178l-167.496,22.481l-64.998,48.977l-2.542,-48.653l-58.825,-7.947l-24.329,-27.57l1.816,-132.174l7.081,-14.758l32.862,-16.38l30.32,-7.298Z" style="fill:#f1f5f9;stroke:#fff;stroke-width:0.42px;"/><path d="M209.561,0.696c-1.131,0.379 -19.796,6.694 -41.359,14.083c-21.563,7.389 -48.641,16.609 -60.094,20.524c-11.453,3.915 -21.987,7.578 -23.401,8.273c-5.02,2.273 -7.211,6.568 -5.585,10.925c1.06,2.968 3.181,4.357 10.322,6.757l5.939,2.021l-0,21.408l-0.071,21.408l-2.404,2.779c-4.101,4.8 -5.585,9.22 -5.656,16.419c0,7.01 0.919,9.599 4.808,13.009c7.07,6.315 18.806,6.315 24.815,-0.126c7.282,-7.768 5.585,-18.882 -4.878,-31.26l-3.818,-4.547l8.272,-2.526c4.525,-1.389 8.979,-2.716 9.827,-2.968c1.485,-0.379 1.485,-0.316 1.767,10.862c0.212,10.357 0.353,11.43 1.838,14.02c7.848,13.072 34.996,24.25 68.013,27.976c11.029,1.2 38.602,1.01 48.782,-0.316c18.311,-2.526 32.168,-5.999 44.258,-11.178c11.383,-4.8 17.251,-9.157 20.361,-15.156c1.414,-2.716 1.485,-4.042 1.697,-25.64l0.212,-22.798l20.998,-7.136c11.524,-3.915 22.2,-7.705 23.614,-8.399c4.949,-2.4 6.151,-8.147 2.545,-11.683c-2.121,-2.021 -2.969,-2.337 -30.966,-11.43c-13.009,-4.294 -30.825,-10.104 -39.592,-13.009c-61.579,-20.461 -69.992,-23.05 -74.093,-22.987c-2.192,0 -4.949,0.316 -6.151,0.695Zm32.522,22.608c14.423,4.547 33.653,10.673 42.773,13.578c9.12,2.968 23.189,7.389 31.249,9.915l14.564,4.61l-56.277,20.082c-30.966,11.052 -57.054,20.019 -57.973,20.019c-1.697,0 -7.706,-2.147 -22.27,-7.831c-4.737,-1.831 -14.635,-5.684 -22.058,-8.589c-23.614,-9.094 -60.094,-23.556 -60.66,-23.998c-0.566,-0.442 5.797,-2.716 52.176,-18.693c12.443,-4.231 28.704,-9.915 36.057,-12.504c7.423,-2.589 14.069,-4.736 14.847,-4.736c0.778,-0.063 13.221,3.663 27.573,8.147Zm-123.37,48.564l8.13,3.031l0.212,3.284c0.141,2.21 -0.071,3.284 -0.707,3.473c-0.495,0.189 -4.101,1.326 -7.918,2.526c-3.818,1.263 -7.282,2.273 -7.636,2.273c-0.283,0 -0.566,-3.979 -0.566,-8.841c0,-4.863 0.071,-8.841 0.212,-8.841c0.071,0 3.818,1.389 8.272,3.094Zm178.162,25.008c-0,20.019 -0.071,20.335 -5.585,24.187c-14.211,10.041 -46.591,16.609 -77.133,15.725c-29.199,-0.884 -54.014,-7.705 -65.185,-17.935c-4.595,-4.231 -4.808,-5.242 -4.808,-22.924c0,-8.652 0.212,-15.788 0.424,-15.788c0.283,0 7.706,2.842 16.614,6.315c27.573,10.862 45.742,17.619 49.065,18.377c1.838,0.442 5.515,0.568 8.343,0.379c4.454,-0.253 8.908,-1.642 36.198,-11.115c17.109,-5.999 33.37,-11.683 36.057,-12.694c2.757,-1.01 5.161,-1.831 5.515,-1.831c0.283,-0.063 0.495,7.768 0.495,17.304Z" style="fill:#c5192d;fill-rule:nonzero;stroke:#000;stroke-width:0.42px;stroke-linecap:butt;stroke-miterlimit:2;"/><path d="M75.587,94.097c-19.513,5.431 -33.511,9.725 -38.602,11.873c-15.059,6.378 -26.229,16.104 -32.451,28.103c-4.808,9.157 -4.666,6.947 -4.454,78.056l0.212,64.099l1.626,4.61c6.575,19.072 23.26,32.902 46.449,38.459c6.646,1.579 8.06,1.705 22.482,1.705l15.342,0.063l-0,23.05c-0,21.282 0.141,23.24 1.343,25.703c2.05,3.979 6.08,5.81 11.029,4.989c2.545,-0.442 7.989,-4.736 50.409,-39.659l16.473,-13.578l7.211,-0.695c3.959,-0.379 26.936,-2.842 51.045,-5.431c24.108,-2.589 52.247,-5.621 62.498,-6.694c10.322,-1.074 21.846,-2.526 25.664,-3.221c25.24,-4.484 44.54,-17.367 55.357,-36.881c2.121,-3.852 4.737,-9.789 5.868,-13.262l1.909,-6.315l0,-57.784c0,-64.794 0.283,-60.942 -5.232,-71.046c-6.929,-12.504 -17.533,-19.956 -36.693,-25.64c-4.525,-1.389 -8.413,-2.463 -8.767,-2.463c-0.283,0 -0.566,3.473 -0.566,7.768l-0,7.768l3.606,0.821c10.605,2.463 21.634,9.852 25.664,17.24c3.888,7.136 4.03,9.22 3.818,67.194c-0.212,52.732 -0.212,52.984 -1.838,58.037c-0.848,2.779 -3.04,7.641 -4.737,10.799c-7.565,13.578 -24.179,24.566 -41.713,27.661c-3.111,0.568 -37.753,4.547 -77.062,8.968c-39.238,4.357 -72.537,8.147 -73.881,8.462c-2.545,0.632 -7.423,4.421 -38.672,30.439l-13.645,11.304l0,-20.84c0,-19.956 -0.071,-20.966 -1.414,-22.166c-0.778,-0.695 -2.192,-1.389 -3.181,-1.642c-0.919,-0.189 -8.837,0.189 -17.533,0.947c-13.009,1.137 -16.756,1.2 -21.422,0.632c-12.019,-1.452 -21.775,-5.747 -30.401,-13.451c-6.434,-5.747 -10.181,-11.746 -11.524,-18.314c-1.06,-5.305 -1.06,-122.83 0,-127.44c2.545,-10.925 12.584,-20.777 27.431,-26.903c5.302,-2.147 26.512,-8.652 33.865,-10.294l3.676,-0.821l0,-8.083c0,-9.41 0.848,-8.904 -9.191,-6.126Z" style="fill:#c5192d;fill-rule:nonzero;stroke:#000;stroke-width:0.42px;stroke-linecap:butt;stroke-miterlimit:2;"/></g></svg>